<svg width="738" height="800" viewBox="0 0 738 800" fill="none" xmlns="http://www.w3.org/2000/svg">
<path fill-rule="evenodd" clip-rule="evenodd" d="M737.013 265.733C737.013 211.555 718.835 167.245 688.657 132.533C693.501 119.955 709.635 69.4667 683.99 1.15545C683.99 1.15545 644.523 -12.1779 554.657 52.0446C517.101 41.0221 476.835 35.5113 436.835 35.3334C396.835 35.5113 356.568 41.0221 319.057 52.0446C229.145 -12.1779 189.635 1.15545 189.635 1.15545C163.99 69.4667 180.168 119.955 185.012 132.533C154.879 167.245 136.568 211.555 136.568 265.733C136.568 455.955 246.435 498.533 350.923 511.067C350.923 511.067 275.812 557.6 275.812 635.822C249.012 648.533 135.59 687.467 93.59 611.6C93.59 611.6 68.7455 563.955 21.5013 560.445C21.5013 560.445 -24.4545 559.822 18.2567 590.622C18.2567 590.622 49.1013 605.911 70.5234 663.245C70.5234 663.245 94.3454 784.045 274.301 729.778C276.123 730.711 274.968 788.222 274.968 800H598.79C598.79 800 599.323 684.578 599.323 647.867C599.323 557.6 539.057 526 522.123 510.667C626.968 498.4 737.013 456.445 737.013 265.733Z" fill="#DDDDDD"/>
</svg>
