<svg width="684" height="800" viewBox="0 0 684 800" fill="none" xmlns="http://www.w3.org/2000/svg">
<path d="M112.929 0.168537C105.876 -0.713074 99.7049 1.93176 96.1785 6.33981C58.2692 3.69498 23.0048 31.0264 11.5438 73.3437C-3.44357 128.004 45.9266 185.308 101.468 182.663C146.43 180.019 184.34 142.109 194.919 99.792C206.38 45.1321 164.063 4.57659 112.929 0.168537Z" fill="#DDDDDD"/>
<path d="M165.826 273.468C165.826 266.415 161.418 262.889 156.128 262.007C154.365 253.191 147.312 246.138 136.733 247.02C121.745 247.901 106.758 247.901 91.7705 248.783C75.0199 249.664 53.8612 247.901 37.9922 254.954C32.7026 256.717 30.0577 261.125 28.2945 264.652C26.5313 266.415 25.6497 268.178 24.7681 270.823C3.60939 378.38 4.491 486.818 5.37262 596.138C5.37262 634.93 -13.1412 736.315 22.1232 765.407C24.7681 768.053 28.2945 768.933 31.8209 768.933C32.7026 770.698 34.4658 773.343 37.1106 774.223C53.8612 785.684 82.0728 780.394 100.587 777.749C111.166 775.986 125.272 775.105 135.851 768.933C144.667 772.46 156.128 769.815 158.773 759.237C172.879 688.708 160.536 610.243 159.655 538.834C157.01 448.909 163.182 361.63 165.826 273.468Z" fill="#DDDDDD"/>
<path d="M682.452 552.057C683.332 478.883 679.807 405.71 646.304 339.589C578.42 204.702 371.243 234.677 252.226 249.664C240.765 251.428 234.593 261.125 235.475 269.942C235.475 269.942 235.475 269.942 235.475 270.823C211.671 432.158 211.671 603.19 214.316 766.289C214.316 779.513 225.777 786.566 236.357 786.566C239.001 788.329 242.528 790.092 246.936 790.974C283.964 795.383 320.11 795.383 357.137 799.79C368.598 801.554 376.533 791.855 378.296 782.159C386.232 779.513 393.283 772.461 390.639 762.762C373.888 700.169 373.888 638.455 378.296 574.097C381.822 527.372 396.811 474.475 391.522 427.75C422.378 420.697 448.825 397.775 474.392 431.276C500.84 465.659 507.013 517.674 512.301 559.11C517.59 599.663 519.354 641.1 520.235 682.535C521.117 707.221 513.182 742.485 528.17 763.644C531.696 768.933 536.986 770.697 541.395 771.578C542.276 771.578 543.159 772.46 544.04 772.46C578.423 780.394 620.74 788.329 656.005 782.157C666.584 780.393 671.875 770.697 671.875 760.999C689.503 698.404 681.569 615.533 682.452 552.057ZM566.079 731.026C571.369 733.67 576.658 734.551 581.948 732.789C587.238 733.67 592.529 732.789 597.818 730.144C598.699 731.907 599.582 733.67 601.343 736.315C589.002 736.315 577.541 737.195 565.197 737.195C566.079 734.55 566.079 732.787 566.079 731.026Z" fill="#DDDDDD"/>
</svg>
