<svg width="683" height="600" viewBox="0 0 683 600" fill="none" xmlns="http://www.w3.org/2000/svg">
<path d="M675.678 117.677L581.415 211.942C562.595 430.319 378.431 600 157.999 600C112.61 600 75.205 592.804 46.8191 578.61C23.9111 567.157 14.5269 554.863 12.1984 551.367C10.1094 548.234 8.75535 544.669 8.23726 540.939C7.71918 537.209 8.0505 533.41 9.20647 529.826C10.3624 526.241 12.3132 522.965 14.9131 520.24C17.5129 517.516 20.6947 515.414 24.2208 514.092C25.025 513.788 98.7463 485.474 146.393 431.564C116.757 410.461 90.6728 384.769 69.1229 355.455C26.2854 297.319 -19.0209 196.358 8.40206 45.5276C9.21829 41.0388 11.2473 36.859 14.2692 33.4409C17.2911 30.0229 21.1907 27.4969 25.5456 26.1366C29.9004 24.7764 34.5445 24.6337 38.9746 25.7242C43.4048 26.8146 47.4521 29.0964 50.6781 32.3226C51.7797 33.4212 155.81 135.982 282.982 169.11L282.999 149.988C283.269 109.961 299.42 71.6783 327.904 43.5552C356.388 15.4321 394.873 -0.230282 434.9 0.0106742C460.903 0.370777 486.368 7.46916 508.808 20.6124C531.248 33.7557 549.895 52.4945 562.928 74.9985L657.999 75C662.944 75 667.777 76.4662 671.888 79.2131C676 81.9601 679.204 85.8644 681.096 90.4325C682.989 95.0006 683.484 100.027 682.519 104.877C681.555 109.726 679.174 114.181 675.678 117.677Z" fill="#DDDDDD"/>
</svg>
